<?xml version="1.0" standalone="no"?>
<!DOCTYPE svg PUBLIC "-//W3C//DTD SVG 20010904//EN"
 "http://www.w3.org/TR/2001/REC-SVG-20010904/DTD/svg10.dtd">
<svg version="1.0" xmlns="http://www.w3.org/2000/svg"
 width="535.000000pt" height="534.000000pt" viewBox="0 0 535.000000 534.000000"
 preserveAspectRatio="xMidYMid meet">

<g transform="translate(0.000000,534.000000) scale(0.100000,-0.100000)"
fill="#000000" stroke="none">
<path d="M737 5324 c-305 -55 -563 -271 -677 -565 -63 -165 -61 -67 -58 -2129
l3 -1875 22 -77 c95 -332 339 -570 670 -655 64 -17 190 -18 1978 -18 1788 0
1914 1 1978 18 337 86 588 337 674 674 17 64 18 190 18 1973 0 1783 -1 1909
-18 1973 -85 331 -323 575 -655 670 l-77 22 -1890 2 c-1590 1 -1902 -1 -1968
-13z m3433 -1289 l0 -395 -500 0 -500 0 0 -1490 0 -1490 -460 0 -460 0 0 1490
0 1490 -497 2 -498 3 -3 393 -2 392 1460 0 1460 0 0 -395z"/>
</g>
</svg>
